{"asset":{"version":"2.0","generator":"Blockbench 5.0.4 glTF exporter"},"scenes":[{"nodes":[2],"name":"blockbench_export"}],"scene":0,"nodes":[{"translation":[0,0.25,0],"name":"beveled_cuboid","mesh":0},{"translation":[0,0.5,0],"name":"Drip_right_front"},{"name":"root","children":[0,1]}],"bufferViews":[{"buffer":0,"byteOffset":0,"byteLength":6048,"target":34962,"byteStride":12},{"buffer":0,"byteOffset":6048,"byteLength":6048,"target":34962,"byteStride":12},{"buffer":0,"byteOffset":12096,"byteLength":4032,"target":34962,"byteStride":8},{"buffer":0,"byteOffset":16128,"byteLength":1488,"target":34963}],"buffers":[{"byteLength":17616,"uri":"data:application/octet-stream;base64,"}],"accessors":[{"bufferView":0,"componentType":5126,"count":504,"max":[0.4375,0.875,0.4375],"min":[-0.4375,0,-0.4375],"type":"VEC3"},{"bufferView":1,"componentType":5126,"count":504,"max":[1,1,1],"min":[-1,-1,-1],"type":"VEC3"},{"bufferView":2,"componentType":5126,"count":504,"max":[0.703125,0.734375],"min":[0,0],"type":"VEC2"},{"bufferView":3,"componentType":5123,"count":744,"max":[503],"min":[0],"type":"SCALAR"}],"materials":[{"pbrMetallicRoughness":{"metallicFactor":0,"roughnessFactor":1,"baseColorTexture":{"index":0}},"alphaMode":"MASK","alphaCutoff":0.05,"doubleSided":true}],"textures":[{"sampler":0,"source":0,"name":"cube"}],"samplers":[{"magFilter":9728,"minFilter":9728,"wrapS":33071,"wrapT":33071}],"images":[{"mimeType":"image/png","uri":"data:image/png;base64,"}],"meshes":[{"primitives":[{"mode":4,"attributes":{"POSITION":0,"NORMAL":1,"TEXCOORD_0":2},"indices":3,"material":0}]}]}